<svg width="25" height="24" viewBox="0 0 25 24" fill="none" xmlns="http://www.w3.org/2000/svg">
<path d="M4.75 8C4.75 6.93913 5.17143 5.92172 5.92157 5.17157C6.67172 4.42143 7.68913 4 8.75 4H16.75C17.8109 4 18.8283 4.42143 19.5784 5.17157C20.3286 5.92172 20.75 6.93913 20.75 8V16C20.75 17.0609 20.3286 18.0783 19.5784 18.8284C18.8283 19.5786 17.8109 20 16.75 20H8.75C7.68913 20 6.67172 19.5786 5.92157 18.8284C5.17143 18.0783 4.75 17.0609 4.75 16V8Z" stroke="white" stroke-width="1.5" stroke-linecap="round" stroke-linejoin="round"/>
<path d="M9.75 8C9.75 8.79565 10.0661 9.55871 10.6287 10.1213C11.1913 10.6839 11.9544 11 12.75 11C13.5456 11 14.3087 10.6839 14.8713 10.1213C15.4339 9.55871 15.75 8.79565 15.75 8" stroke="white" stroke-width="1.5" stroke-linecap="round" stroke-linejoin="round"/>
</svg>
