<svg width="32" height="32" viewBox="0 0 32 32" fill="none" xmlns="http://www.w3.org/2000/svg">
<g clip-path="url(#clip0_95_433)">
<path fill-rule="evenodd" clip-rule="evenodd" d="M15.4121 0.579829C14.9681 0.723829 14.7121 0.979829 14.5881 1.39783C14.5181 1.63183 14.5061 2.17583 14.5061 5.01583C14.5061 8.77783 14.5021 8.72983 14.8861 9.11383C15.4001 9.62583 16.6001 9.62583 17.1141 9.11383C17.4981 8.72983 17.4941 8.77783 17.4941 5.01583C17.4941 1.37583 17.4881 1.31183 17.1921 0.959829C16.9441 0.665829 16.6781 0.567829 16.0801 0.551829C15.8571 0.539194 15.6333 0.548572 15.4121 0.579829ZM5.50612 4.53183C5.19012 4.67583 4.72412 5.13183 4.56212 5.45583C4.47877 5.61757 4.4333 5.79616 4.42914 5.97806C4.42499 6.15997 4.46225 6.34044 4.53812 6.50583C4.68612 6.83583 9.33412 11.4998 9.70012 11.6858C10.2201 11.9525 10.7488 11.8232 11.2861 11.2978C11.8141 10.7818 11.9541 10.2218 11.6861 9.69983C11.5001 9.33383 6.83612 4.68583 6.50612 4.53783C6.34837 4.46977 6.17853 4.43416 6.00673 4.43313C5.83493 4.4321 5.66467 4.46567 5.50612 4.53183ZM25.7061 4.56383C25.4601 4.67783 25.0401 5.07183 23.0361 7.08183C21.1941 8.92783 20.6321 9.52383 20.5421 9.71983C20.4677 9.88245 20.4294 10.0592 20.4297 10.238C20.4301 10.4169 20.4691 10.5935 20.5441 10.7558C20.6841 11.0558 21.1441 11.5278 21.4541 11.6898C21.7681 11.8538 22.2341 11.8518 22.5601 11.6858C22.8941 11.5138 27.5141 6.89383 27.6861 6.55983C27.7678 6.38779 27.8106 6.19992 27.8117 6.0095C27.8127 5.81907 27.7719 5.63074 27.6921 5.45783C27.4708 5.0877 27.1581 4.78057 26.7841 4.56583C26.6185 4.47659 26.4335 4.42971 26.2454 4.42936C26.0573 4.42901 25.872 4.47521 25.7061 4.56383ZM1.39812 14.5838C0.808784 14.7692 0.514784 15.2405 0.516118 15.9978C0.518118 16.7718 0.806118 17.2358 1.39612 17.4118C1.63212 17.4818 2.15812 17.4938 5.01612 17.4938C7.99412 17.4938 8.39212 17.4838 8.63612 17.4038C8.8155 17.3452 8.97854 17.2451 9.11198 17.1117C9.24542 16.9782 9.34551 16.8152 9.40412 16.6358C9.57612 16.1058 9.49012 15.3538 9.21612 14.9818C9.1069 14.8618 8.97765 14.7616 8.83412 14.6858L8.56012 14.5338L5.09412 14.5218C2.30412 14.5138 1.58212 14.5258 1.39812 14.5838ZM23.4901 14.5558C23.2198 14.6306 22.9755 14.7788 22.7841 14.9838C22.5101 15.3538 22.4241 16.1058 22.5961 16.6358C22.7121 16.9958 23.0041 17.2878 23.3641 17.4038C23.6081 17.4838 24.0061 17.4938 26.9841 17.4938C29.8421 17.4938 30.3681 17.4818 30.6041 17.4118C31.1941 17.2358 31.4821 16.7718 31.4841 15.9978C31.4841 15.2278 31.1901 14.7658 30.5801 14.5818C30.3741 14.5198 29.7281 14.5078 26.9921 14.5118C25.1561 14.5158 23.5801 14.5358 23.4901 14.5558ZM9.70612 20.5638C9.46012 20.6778 9.04012 21.0718 7.03612 23.0818C5.19412 24.9278 4.63212 25.5238 4.54212 25.7198C4.46773 25.8824 4.42939 26.0592 4.42974 26.238C4.43008 26.4169 4.4691 26.5935 4.54412 26.7558C4.68412 27.0558 5.14412 27.5278 5.45412 27.6898C5.76812 27.8538 6.23412 27.8518 6.56012 27.6858C6.89412 27.5138 11.5141 22.8938 11.6861 22.5598C11.7678 22.3878 11.8106 22.1999 11.8117 22.0095C11.8127 21.8191 11.7719 21.6307 11.6921 21.4578C11.4708 21.0877 11.1581 20.7806 10.7841 20.5658C10.6185 20.4766 10.4335 20.4297 10.2454 20.4294C10.0573 20.429 9.87202 20.4752 9.70612 20.5638ZM21.5061 20.5318C21.1901 20.6758 20.7241 21.1318 20.5621 21.4558C20.4788 21.6176 20.4333 21.7962 20.4291 21.9781C20.425 22.16 20.4623 22.3404 20.5381 22.5058C20.6861 22.8358 25.3341 27.4998 25.7001 27.6858C26.2201 27.9525 26.7488 27.8232 27.2861 27.2978C27.8141 26.7818 27.9541 26.2218 27.6861 25.6998C27.5001 25.3338 22.8361 20.6858 22.5061 20.5378C22.3484 20.4698 22.1785 20.4342 22.0067 20.4331C21.8349 20.4321 21.6647 20.4657 21.5061 20.5318ZM15.4901 22.5538C15.22 22.6301 14.9759 22.7788 14.7841 22.9838C14.5081 23.3558 14.5061 23.3818 14.5061 26.9778C14.5061 29.8418 14.5181 30.3678 14.5881 30.6038C14.7615 31.1905 15.2321 31.4832 16.0001 31.4818C16.7681 31.4845 17.2388 31.1918 17.4121 30.6038C17.5361 30.1798 17.5341 23.7498 17.4081 23.3798C17.3691 23.2308 17.2981 23.092 17.2 22.9732C17.1019 22.8543 16.9791 22.7583 16.8401 22.6918C16.6201 22.5718 16.4921 22.5418 16.1141 22.5278C15.9058 22.5148 15.6966 22.5235 15.4901 22.5538Z" fill="white"/>
</g>
<defs>
<clipPath id="clip0_95_433">
<rect width="32" height="32" fill="white"/>
</clipPath>
</defs>
</svg>
