<svg width="48" height="48" viewBox="0 0 48 48" fill="none" xmlns="http://www.w3.org/2000/svg">
<path fill-rule="evenodd" clip-rule="evenodd" d="M39.8921 3.3541C39.7574 2.95901 39.5025 2.61596 39.163 2.37304C38.8235 2.13012 38.4165 1.99951 37.9991 1.99951C37.5817 1.99951 37.1747 2.13012 36.8352 2.37304C36.4958 2.61596 36.2408 2.95901 36.1061 3.3541L35.8481 4.1101C35.5519 4.97782 35.0608 5.76612 34.4125 6.41445C33.7641 7.06278 32.9758 7.55391 32.1081 7.8501L31.3541 8.1081C30.9597 8.24325 30.6174 8.49826 30.3751 8.83749C30.1327 9.17672 30.0025 9.5832 30.0025 10.0001C30.0025 10.417 30.1327 10.8235 30.3751 11.1627C30.6174 11.5019 30.9597 11.757 31.3541 11.8921L32.1101 12.1521C32.9776 12.4481 33.7658 12.9389 34.4141 13.5869C35.0624 14.2349 35.5537 15.0228 35.8501 15.8901L36.1061 16.6461C36.2408 17.0412 36.4958 17.3843 36.8352 17.6272C37.1747 17.8701 37.5817 18.0007 37.9991 18.0007C38.4165 18.0007 38.8235 17.8701 39.163 17.6272C39.5025 17.3843 39.7574 17.0412 39.8921 16.6461L40.1521 15.8901C40.4481 15.0226 40.9389 14.2344 41.5869 13.5861C42.2349 12.9378 43.0228 12.4466 43.8901 12.1501L44.6461 11.8921C45.0405 11.757 45.3828 11.5019 45.6252 11.1627C45.8675 10.8235 45.9978 10.417 45.9978 10.0001C45.9978 9.5832 45.8675 9.17672 45.6252 8.83749C45.3828 8.49826 45.0405 8.24325 44.6461 8.1081L43.8901 7.8481C43.0226 7.55211 42.2345 7.06129 41.5861 6.41332C40.9378 5.76535 40.4466 4.97745 40.1501 4.1101L39.8921 3.3541ZM36.3921 10.0001C36.9895 9.52677 37.5255 8.99077 38.0001 8.3921C38.4735 8.98944 39.0095 9.52544 39.6081 10.0001C39.0127 10.4732 38.4732 11.0127 38.0001 11.6081C37.527 11.0127 36.9875 10.4732 36.3921 10.0001ZM24.0001 4.0001C21.348 4.0001 18.8044 5.05367 16.9291 6.92904C15.0537 8.8044 14.0001 11.3479 14.0001 14.0001V24.0001C14.0001 26.6523 15.0537 29.1958 16.9291 31.0712C18.8044 32.9465 21.348 34.0001 24.0001 34.0001C26.6523 34.0001 29.1958 32.9465 31.0712 31.0712C32.9466 29.1958 34.0001 26.6523 34.0001 24.0001V20.0001C34.0001 19.4697 33.7894 18.961 33.4143 18.5859C33.0393 18.2108 32.5306 18.0001 32.0001 18.0001C31.4697 18.0001 30.961 18.2108 30.5859 18.5859C30.2108 18.961 30.0001 19.4697 30.0001 20.0001V24.0001C30.0001 25.5914 29.368 27.1175 28.2428 28.2427C27.1175 29.368 25.5914 30.0001 24.0001 30.0001C22.4088 30.0001 20.8827 29.368 19.7575 28.2427C18.6323 27.1175 18.0001 25.5914 18.0001 24.0001V14.0001C17.9997 13.0842 18.209 12.1803 18.612 11.3578C19.015 10.5353 19.6009 9.81597 20.3249 9.25494C21.0489 8.6939 21.8917 8.30606 22.7887 8.12114C23.6858 7.93622 24.6133 7.95912 25.5001 8.1881C25.7565 8.26031 26.0246 8.28059 26.2889 8.24776C26.5532 8.21493 26.8083 8.12965 27.0392 7.99691C27.27 7.86418 27.4721 7.68668 27.6334 7.47481C27.7948 7.26295 27.9122 7.02099 27.9788 6.76313C28.0454 6.50528 28.0598 6.23672 28.0213 5.97321C27.9827 5.70971 27.8918 5.45656 27.7541 5.22863C27.6164 5.0007 27.4345 4.80257 27.2192 4.64587C27.0038 4.48917 26.7594 4.37706 26.5001 4.3161C25.6834 4.10578 24.8434 3.9996 24.0001 4.0001ZM26.0001 39.8761C29.4763 39.4372 32.7125 37.8699 35.2121 35.4146C37.7118 32.9594 39.3369 29.7519 39.8381 26.2841C39.9134 25.759 39.7771 25.2254 39.459 24.8009C39.1409 24.3763 38.6672 24.0954 38.1421 24.0201C37.617 23.9448 37.0834 24.0812 36.6589 24.3992C36.2343 24.7173 35.9534 25.191 35.8781 25.7161C35.4615 28.5689 34.032 31.1765 31.851 33.0621C29.67 34.9478 26.8832 35.9854 24.0001 35.9854C21.117 35.9854 18.3302 34.9478 16.1492 33.0621C13.9682 31.1765 12.5388 28.5689 12.1221 25.7161C12.0468 25.191 11.766 24.7173 11.3414 24.3992C10.9168 24.0812 10.3832 23.9448 9.85812 24.0201C9.33299 24.0954 8.85929 24.3763 8.54123 24.8009C8.22317 25.2254 8.0868 25.759 8.16212 26.2841C8.66332 29.7519 10.2884 32.9594 12.7881 35.4146C15.2878 37.8699 18.5239 39.4372 22.0001 39.8761V42.0001C22.0001 42.5305 22.2108 43.0392 22.5859 43.4143C22.961 43.7894 23.4697 44.0001 24.0001 44.0001C24.5306 44.0001 25.0393 43.7894 25.4143 43.4143C25.7894 43.0392 26.0001 42.5305 26.0001 42.0001V39.8761Z" fill="white"/>
</svg>
